# xmcd
#
# Track frame offsets:
#	150
#	21065
#	38502
#	58318
#	80159
#	97848
#	117166
#	134909
#	156080
#
# Disc length: 2432 seconds
#
# Revision: 0
# Processed by: cddbd v1.5.2PL0 Copyright (c) Steve Scherf et al.
# Submitted via: dBpowerAMP V4.0
#
DISCID=73097e09
DTITLE=Kellin Watson - Paper Bird
DYEAR=2003
DGENRE=Acoustic Bluesy
TTITLE0=01 Let Me Sing
TTITLE1=02 Stranger
TTITLE2=03 Fixation
TTITLE3=04 Paper Bird
TTITLE4=05 Leaving
TTITLE5=06 Single Again
TTITLE6=07 Taste
TTITLE7=08 Breakfast in Bed
TTITLE8=09 Mary
EXTD=
EXTT0=
EXTT1=
EXTT2=
EXTT3=
EXTT4=
EXTT5=
EXTT6=
EXTT7=
EXTT8=
PLAYORDER=
